<svg width="200" height="200" xmlns="http://www.w3.org/2000/svg" viewBox="1 1 16 16"><path d="M 7.554 14.813 h 3.183 a 1.689 1.689 0 0 1 -3.183 0 Z m 1.592 2.25 a 2.813 2.813 0 0 0 2.812 -2.813 a 0.563 0.563 0 0 0 -0.562 -0.563 h -7.5 c -0.31 0 -0.541 -0.014 -0.699 -0.04 c 0.018 -0.036 0.04 -0.077 0.066 -0.123 c 0.036 -0.065 0.354 -0.605 0.46 -0.8 c 0.477 -0.875 0.735 -1.676 0.735 -2.599 V 6.75 c 0 -2.656 2.057 -4.688 4.688 -4.688 c 2.63 0 4.687 2.032 4.687 4.688 v 3.375 c 0 0.923 0.258 1.724 0.736 2.6 c 0.106 0.194 0.424 0.734 0.46 0.799 c 0.026 0.046 0.047 0.087 0.065 0.123 c -0.157 0.026 -0.389 0.04 -0.698 0.04 a 0.564 0.564 0 0 0 0 1.126 c 1.263 0 1.896 -0.221 1.896 -1.002 c 0 -0.26 -0.092 -0.494 -0.28 -0.833 c -0.045 -0.083 -0.361 -0.619 -0.456 -0.792 c -0.395 -0.724 -0.598 -1.355 -0.598 -2.061 V 6.75 c 0 -3.28 -2.563 -5.813 -5.812 -5.813 S 3.333 3.47 3.333 6.75 v 3.375 c 0 0.706 -0.203 1.337 -0.598 2.06 c -0.094 0.174 -0.41 0.71 -0.456 0.793 c -0.188 0.339 -0.279 0.572 -0.279 0.833 c 0 0.78 0.632 1.002 1.896 1.002 H 6.39 a 2.813 2.813 0 0 0 2.756 2.25 Z" /></svg>